<svg width="140" height="140" viewBox="0 0 140 140" fill="none" xmlns="http://www.w3.org/2000/svg">
<rect width="140" height="140" rx="20" fill="#594FD3"/>
<g filter="url(#filter0_d_272_338)">
<path d="M97.5792 102.409C90.5585 102.409 85.1363 100.998 81.3125 98.1775C77.5514 95.294 75.6708 90.2479 75.6708 83.0391V66.6783H64.1055V53.3265H76.4231L82.9109 38H94.2883V53.3265H113V66.6783H94.2883V81.2526C94.2883 82.569 94.539 83.7913 95.0405 84.9197C95.6046 86.048 96.5763 86.9569 97.9553 87.6465C99.3971 88.2733 101.434 88.5867 104.067 88.5867C105.697 88.5867 107.327 88.3987 108.957 88.0226C110.649 87.6465 111.997 87.145 113 86.5181V99.682C111.245 100.56 108.925 101.218 106.042 101.657C103.158 102.158 100.337 102.409 97.5792 102.409Z" fill="white"/>
<path d="M60.4737 102.409C53.453 102.409 48.0308 100.998 44.207 98.1775C40.4459 95.294 38.5654 90.2479 38.5654 83.0391V66.6783H27V53.3265H39.3176L45.8055 38H57.1828V53.3265H75.8942V66.6783H57.1828V81.2526C57.1828 82.569 57.4335 83.7913 57.935 84.9197C58.4992 86.048 59.4708 86.9569 60.8499 87.6465C62.2916 88.2733 64.3289 88.5867 66.9616 88.5867C68.5914 88.5867 70.2213 88.3987 71.8511 88.0226C73.5436 87.6465 74.8913 87.145 75.8942 86.5181V99.682C74.1391 100.56 71.8197 101.218 68.9362 101.657C66.0527 102.158 63.2319 102.409 60.4737 102.409Z" fill="white"/>
</g>
<defs>
<filter id="filter0_d_272_338" x="7" y="18" width="126" height="104.409" filterUnits="userSpaceOnUse" color-interpolation-filters="sRGB">
<feFlood flood-opacity="0" result="BackgroundImageFix"/>
<feColorMatrix in="SourceAlpha" type="matrix" values="0 0 0 0 0 0 0 0 0 0 0 0 0 0 0 0 0 0 127 0" result="hardAlpha"/>
<feOffset/>
<feGaussianBlur stdDeviation="10"/>
<feComposite in2="hardAlpha" operator="out"/>
<feColorMatrix type="matrix" values="0 0 0 0 0.482353 0 0 0 0 0.447059 0 0 0 0 0.929412 0 0 0 1 0"/>
<feBlend mode="normal" in2="BackgroundImageFix" result="effect1_dropShadow_272_338"/>
<feBlend mode="normal" in="SourceGraphic" in2="effect1_dropShadow_272_338" result="shape"/>
</filter>
</defs>
</svg>
