<svg width="564" height="140" viewBox="0 0 564 140" fill="none" xmlns="http://www.w3.org/2000/svg">
<path d="M396.49 82.08C396.49 88.24 395.17 93.6 392.53 98.16C389.97 102.72 386.41 106.2 381.85 108.6C377.29 111 372.17 112.2 366.49 112.2H364.57C358.89 112.2 353.77 111 349.21 108.6C344.65 106.2 341.05 102.72 338.41 98.16C335.85 93.6 334.57 88.24 334.57 82.08V78.6C334.57 72.44 335.85 67.08 338.41 62.52C341.05 57.96 344.65 54.48 349.21 52.08C353.77 49.68 358.89 48.48 364.57 48.48H366.49C372.17 48.48 377.29 49.68 381.85 52.08C386.41 54.48 389.97 57.96 392.53 62.52C395.17 67.08 396.49 72.44 396.49 78.6V82.08ZM378.73 75.48C378.73 70.6 377.49 66.88 375.01 64.32C372.61 61.76 369.45 60.48 365.53 60.48C361.61 60.48 358.41 61.76 355.93 64.32C353.53 66.88 352.33 70.6 352.33 75.48V85.2C352.33 90.08 353.53 93.8 355.93 96.36C358.41 98.92 361.61 100.2 365.53 100.2C369.45 100.2 372.61 98.92 375.01 96.36C377.49 93.8 378.73 90.08 378.73 85.2V75.48Z" fill="white"/>
<path d="M333.239 109.92C331.639 110.56 329.519 111.08 326.879 111.48C324.319 111.96 322.039 112.2 320.039 112.2C313.879 112.2 309.239 110.88 306.119 108.24C302.999 105.6 301.439 101.2 301.439 95.0401V61.6801H294.719V49.6801H302.039L308.159 30.1201H318.959V49.6801H333.239V61.6801H318.959V92.0401C318.959 95.2401 319.559 97.4001 320.759 98.5201C322.039 99.6401 323.719 100.2 325.799 100.2C326.759 100.2 327.999 100.04 329.519 99.7201C331.039 99.4001 332.279 99.0401 333.239 98.6401V109.92Z" fill="white"/>
<path d="M295.907 109.92C294.307 110.56 292.187 111.08 289.547 111.48C286.987 111.96 284.707 112.2 282.707 112.2C276.547 112.2 271.907 110.88 268.787 108.24C265.667 105.6 264.107 101.2 264.107 95.0401V61.6801H257.387V49.6801H264.707L270.827 30.1201H281.627V49.6801H295.907V61.6801H281.627V92.0401C281.627 95.2401 282.227 97.4001 283.427 98.5201C284.707 99.6401 286.387 100.2 288.467 100.2C289.427 100.2 290.667 100.04 292.187 99.7201C293.707 99.4001 294.947 99.0401 295.907 98.6401V109.92Z" fill="white"/>
<path d="M216.22 92.28C216.22 95.08 217.46 97.12 219.94 98.4C222.42 99.6 225.5 100.2 229.18 100.2C232.38 100.2 235.22 99.72 237.7 98.76C240.26 97.8 241.54 96.28 241.54 94.2C241.54 91.96 240.38 90.36 238.06 89.4C235.74 88.44 232.14 87.6 227.26 86.88C222.14 86 217.94 85.04 214.66 84C211.38 82.96 208.54 81.16 206.14 78.6C203.82 76.04 202.66 72.48 202.66 67.92C202.66 63.76 203.86 60.24 206.26 57.36C208.74 54.4 211.98 52.2 215.98 50.76C220.06 49.24 224.5 48.48 229.3 48.48H231.7C235.94 48.48 239.94 49.2 243.7 50.64C247.54 52 250.62 53.96 252.94 56.52C255.26 59 256.42 61.84 256.42 65.04C256.42 65.68 256.38 66.28 256.3 66.84C256.22 67.32 256.18 67.6 256.18 67.68H240.82C240.82 62.88 237.14 60.48 229.78 60.48C226.42 60.48 223.7 60.96 221.62 61.92C219.62 62.88 218.62 64.2 218.62 65.88C218.62 67.88 219.7 69.28 221.86 70.08C224.1 70.88 227.58 71.64 232.3 72.36C237.66 73.24 241.98 74.2 245.26 75.24C248.62 76.2 251.54 78 254.02 80.64C256.5 83.2 257.74 86.84 257.74 91.56C257.74 98.84 255.18 104.12 250.06 107.4C244.94 110.6 238.42 112.2 230.5 112.2H226.54C221.58 112.2 217.14 111.44 213.22 109.92C209.3 108.4 206.22 106.24 203.98 103.44C201.82 100.64 200.74 97.44 200.74 93.84L200.86 91.44H216.22V92.28Z" fill="white"/>
<path d="M199.181 88.08C199.181 93.44 197.901 97.96 195.341 101.64C192.781 105.24 189.381 107.92 185.141 109.68C180.981 111.36 176.421 112.2 171.461 112.2H169.541C163.861 112.2 158.741 111 154.181 108.6C149.621 106.2 146.021 102.76 143.381 98.28C140.821 93.72 139.541 88.32 139.541 82.08V78.6C139.541 72.44 140.861 67.08 143.501 62.52C146.141 57.96 149.701 54.48 154.181 52.08C158.741 49.68 163.861 48.48 169.541 48.48H171.461C176.421 48.48 181.021 49.52 185.261 51.6C189.501 53.6 192.901 56.56 195.461 60.48C198.021 64.32 199.301 68.88 199.301 74.16V83.28H157.301V86.16C157.301 90.16 158.461 93.52 160.781 96.24C163.181 98.88 166.421 100.2 170.501 100.2C174.181 100.2 177.061 99.2 179.141 97.2C181.301 95.12 182.381 92.08 182.381 88.08H199.181ZM169.661 60.48C166.141 60.48 163.261 61.72 161.021 64.2C158.861 66.68 157.621 69.84 157.301 73.68H181.541C181.541 69.6 180.581 66.4 178.661 64.08C176.821 61.68 173.821 60.48 169.661 60.48Z" fill="white"/>
<path d="M138.209 109.92C136.609 110.56 134.489 111.08 131.849 111.48C129.289 111.96 127.009 112.2 125.009 112.2C118.849 112.2 114.209 110.88 111.089 108.24C107.969 105.6 106.409 101.2 106.409 95.0401V61.6801H99.6895V49.6801H107.009L113.129 30.1201H123.929V49.6801H138.209V61.6801H123.929V92.0401C123.929 95.2401 124.529 97.4001 125.729 98.5201C127.009 99.6401 128.689 100.2 130.769 100.2C131.729 100.2 132.969 100.04 134.489 99.7201C136.009 99.4001 137.249 99.0401 138.209 98.6401V109.92Z" fill="white"/>
<path d="M100.879 109.92C99.2794 110.56 97.1594 111.08 94.5194 111.48C91.9594 111.96 89.6794 112.2 87.6794 112.2C81.5194 112.2 76.8794 110.88 73.7594 108.24C70.6394 105.6 69.0794 101.2 69.0794 95.0401V61.6801H62.3594V49.6801H69.6794L75.7994 30.1201H86.5994V49.6801H100.879V61.6801H86.5994V92.0401C86.5994 95.2401 87.1994 97.4001 88.3994 98.5201C89.6794 99.6401 91.3594 100.2 93.4394 100.2C94.3994 100.2 95.6394 100.04 97.1594 99.7201C98.6794 99.4001 99.9194 99.0401 100.879 98.6401V109.92Z" fill="white"/>
<path d="M40.68 69.6C40.68 66.88 39.8 64.68 38.04 63C36.36 61.32 33.6 60.48 29.76 60.48C27.52 60.48 25.6 60.88 24 61.68C22.4 62.4 21.16 63.32 20.28 64.44C19.48 65.56 19.08 66.6 19.08 67.56V68.52H2.16C2 67.56 1.92 66.84 1.92 66.36C1.92 62.92 3.04 59.84 5.28 57.12C7.6 54.4 10.8 52.28 14.88 50.76C18.96 49.24 23.64 48.48 28.92 48.48H31.44C40.08 48.48 46.64 50.2 51.12 53.64C55.6 57 57.84 61.64 57.84 67.56V95.88C57.84 97.32 58.16 98.4 58.8 99.12C59.52 99.84 60.36 100.2 61.32 100.2C62.12 100.2 63 100.04 63.96 99.72C64.92 99.4 65.68 99.12 66.24 98.88V109.68C63.28 111.36 59.76 112.2 55.68 112.2C51.28 112.2 47.92 111.32 45.6 109.56C43.28 107.72 41.92 105.16 41.52 101.88C35.92 108.76 29.04 112.2 20.88 112.2C14.8 112.2 9.8 110.96 5.88 108.48C1.96 106 0 101.28 0 94.32C0 88.64 1.6 84.32 4.8 81.36C8.08 78.32 12.6 76.28 18.36 75.24C24.12 74.2 31.56 73.68 40.68 73.68V69.6ZM40.68 83.52C33.08 83.52 27.4 84.28 23.64 85.8C19.96 87.24 18.12 89.64 18.12 93C18.12 95.64 18.84 97.52 20.28 98.64C21.8 99.68 24.08 100.2 27.12 100.2C29.2 100.2 31.28 99.64 33.36 98.52C35.44 97.4 37.16 95.8 38.52 93.72C39.96 91.64 40.68 89.32 40.68 86.76V83.52Z" fill="white"/>
<path fill-rule="evenodd" clip-rule="evenodd" d="M444 0C432.954 0 424 8.9543 424 20V120C424 131.046 432.954 140 444 140H544C555.046 140 564 131.046 564 120V20C564 8.95431 555.046 0 544 0H444ZM484.474 102.409C477.453 102.409 472.031 100.998 468.207 98.1775C464.446 95.294 462.565 90.2479 462.565 83.0391V66.6783H451V53.3265H463.318L469.805 38H481.183V53.3265H500.423L506.911 38H518.288V53.3265H537V66.6783H518.288V81.2526C518.288 82.569 518.539 83.7913 519.04 84.9197C519.605 86.048 520.576 86.9569 521.955 87.6465C523.397 88.2733 525.434 88.5867 528.067 88.5867C529.697 88.5867 531.327 88.3987 532.957 88.0226C534.649 87.6465 535.997 87.145 537 86.5181V99.682C535.245 100.56 532.925 101.218 530.042 101.657C527.158 102.158 524.337 102.409 521.579 102.409C514.559 102.409 509.136 100.998 505.312 98.1775C502.3 95.8678 500.494 92.1705 499.894 87.0857V99.682C498.139 100.56 495.82 101.218 492.936 101.657C490.053 102.158 487.232 102.409 484.474 102.409ZM481.183 81.2526V66.6783H499.671V83.0391C499.671 84.2742 499.726 85.4458 499.836 86.5539C498.84 87.1641 497.511 87.6536 495.851 88.0226C494.221 88.3987 492.591 88.5867 490.962 88.5867C488.329 88.5867 486.292 88.2733 484.85 87.6465C483.471 86.9569 482.499 86.048 481.935 84.9197C481.434 83.7913 481.183 82.569 481.183 81.2526Z" fill="white"/>
</svg>
